<mxfile host="Electron" agent="Mozilla/5.0 (Windows NT 10.0; Win64; x64) AppleWebKit/537.36 (KHTML, like Gecko) draw.io/24.7.8 Chrome/128.0.6613.36 Electron/32.0.1 Safari/537.36" version="24.7.8">
  <diagram name="Page-1" id="tqgh8wIxIpG1xmtgchpj">
    <mxGraphModel dx="1098" dy="868" grid="1" gridSize="10" guides="1" tooltips="1" connect="1" arrows="1" fold="1" page="1" pageScale="1" pageWidth="850" pageHeight="1100" math="0" shadow="0">
      <root>
        <mxCell id="0" />
        <mxCell id="1" parent="0" />
        <mxCell id="u9Umea-9Md1OC9XHzGHI-179" value="Start" style="whiteSpace=wrap;strokeWidth=2;" vertex="1" parent="1">
          <mxGeometry x="814" y="870" width="51" height="34" as="geometry" />
        </mxCell>
        <mxCell id="u9Umea-9Md1OC9XHzGHI-180" value="MainMenu" style="whiteSpace=wrap;strokeWidth=2;" vertex="1" parent="1">
          <mxGeometry x="796" y="973" width="87" height="34" as="geometry" />
        </mxCell>
        <mxCell id="u9Umea-9Md1OC9XHzGHI-181" value="SendPayment" style="whiteSpace=wrap;strokeWidth=2;" vertex="1" parent="1">
          <mxGeometry x="41" y="1263" width="111" height="34" as="geometry" />
        </mxCell>
        <mxCell id="u9Umea-9Md1OC9XHzGHI-182" value="CheckBalance" style="whiteSpace=wrap;strokeWidth=2;" vertex="1" parent="1">
          <mxGeometry x="224" y="1572" width="114" height="34" as="geometry" />
        </mxCell>
        <mxCell id="u9Umea-9Md1OC9XHzGHI-183" value="ViewHistory" style="whiteSpace=wrap;strokeWidth=2;" vertex="1" parent="1">
          <mxGeometry x="419" y="1572" width="102" height="34" as="geometry" />
        </mxCell>
        <mxCell id="u9Umea-9Md1OC9XHzGHI-184" value="ManageFavorites" style="whiteSpace=wrap;strokeWidth=2;" vertex="1" parent="1">
          <mxGeometry x="771" y="1366" width="136" height="34" as="geometry" />
        </mxCell>
        <mxCell id="u9Umea-9Md1OC9XHzGHI-185" value="IteMenu" style="whiteSpace=wrap;strokeWidth=2;" vertex="1" parent="1">
          <mxGeometry x="1211" y="1076" width="72" height="34" as="geometry" />
        </mxCell>
        <mxCell id="u9Umea-9Md1OC9XHzGHI-186" value="AirtimeConversion" style="whiteSpace=wrap;strokeWidth=2;" vertex="1" parent="1">
          <mxGeometry x="1398" y="1366" width="147" height="34" as="geometry" />
        </mxCell>
        <mxCell id="u9Umea-9Md1OC9XHzGHI-187" value="ExchangeMenu" style="whiteSpace=wrap;strokeWidth=2;" vertex="1" parent="1">
          <mxGeometry x="1804" y="1263" width="120" height="34" as="geometry" />
        </mxCell>
        <mxCell id="u9Umea-9Md1OC9XHzGHI-188" value="ConfirmRecipient" style="whiteSpace=wrap;strokeWidth=2;" vertex="1" parent="1">
          <mxGeometry x="27" y="1366" width="140" height="34" as="geometry" />
        </mxCell>
        <mxCell id="u9Umea-9Md1OC9XHzGHI-189" value="EnterAmount" style="whiteSpace=wrap;strokeWidth=2;" vertex="1" parent="1">
          <mxGeometry x="42" y="1469" width="109" height="34" as="geometry" />
        </mxCell>
        <mxCell id="u9Umea-9Md1OC9XHzGHI-190" value="ConfirmTransaction" style="whiteSpace=wrap;strokeWidth=2;" vertex="1" parent="1">
          <mxGeometry x="20" y="1572" width="154" height="34" as="geometry" />
        </mxCell>
        <mxCell id="u9Umea-9Md1OC9XHzGHI-191" value="ProcessPayment" style="whiteSpace=wrap;strokeWidth=2;" vertex="1" parent="1">
          <mxGeometry x="32" y="1675" width="130" height="34" as="geometry" />
        </mxCell>
        <mxCell id="u9Umea-9Md1OC9XHzGHI-192" value="End Success" style="whiteSpace=wrap;strokeWidth=2;" vertex="1" parent="1">
          <mxGeometry x="931" y="1778" width="101" height="34" as="geometry" />
        </mxCell>
        <mxCell id="u9Umea-9Md1OC9XHzGHI-193" value="End Failure" style="whiteSpace=wrap;strokeWidth=2;" vertex="1" parent="1">
          <mxGeometry x="49" y="1778" width="96" height="34" as="geometry" />
        </mxCell>
        <mxCell id="u9Umea-9Md1OC9XHzGHI-194" value="DisplayBalance" style="whiteSpace=wrap;strokeWidth=2;" vertex="1" parent="1">
          <mxGeometry x="220" y="1675" width="122" height="34" as="geometry" />
        </mxCell>
        <mxCell id="u9Umea-9Md1OC9XHzGHI-195" value="DisplayTransactions" style="whiteSpace=wrap;strokeWidth=2;" vertex="1" parent="1">
          <mxGeometry x="392" y="1675" width="155" height="34" as="geometry" />
        </mxCell>
        <mxCell id="u9Umea-9Md1OC9XHzGHI-196" value="AddFavorite" style="whiteSpace=wrap;strokeWidth=2;" vertex="1" parent="1">
          <mxGeometry x="600" y="1469" width="103" height="34" as="geometry" />
        </mxCell>
        <mxCell id="u9Umea-9Md1OC9XHzGHI-197" value="RemoveFavorite" style="whiteSpace=wrap;strokeWidth=2;" vertex="1" parent="1">
          <mxGeometry x="813" y="1469" width="130" height="34" as="geometry" />
        </mxCell>
        <mxCell id="u9Umea-9Md1OC9XHzGHI-198" value="EnterFavoriteDetails" style="whiteSpace=wrap;strokeWidth=2;" vertex="1" parent="1">
          <mxGeometry x="571" y="1572" width="162" height="34" as="geometry" />
        </mxCell>
        <mxCell id="u9Umea-9Md1OC9XHzGHI-199" value="SaveFavorite" style="whiteSpace=wrap;strokeWidth=2;" vertex="1" parent="1">
          <mxGeometry x="598" y="1675" width="107" height="34" as="geometry" />
        </mxCell>
        <mxCell id="u9Umea-9Md1OC9XHzGHI-200" value="SelectFavoriteToRemove" style="whiteSpace=wrap;strokeWidth=2;" vertex="1" parent="1">
          <mxGeometry x="783" y="1572" width="190" height="34" as="geometry" />
        </mxCell>
        <mxCell id="u9Umea-9Md1OC9XHzGHI-201" value="ConfirmRemoval" style="whiteSpace=wrap;strokeWidth=2;" vertex="1" parent="1">
          <mxGeometry x="812" y="1675" width="132" height="34" as="geometry" />
        </mxCell>
        <mxCell id="u9Umea-9Md1OC9XHzGHI-202" value="CreateIte" style="whiteSpace=wrap;strokeWidth=2;" vertex="1" parent="1">
          <mxGeometry x="1043" y="1469" width="83" height="34" as="geometry" />
        </mxCell>
        <mxCell id="u9Umea-9Md1OC9XHzGHI-203" value="DonateToIte" style="whiteSpace=wrap;strokeWidth=2;" vertex="1" parent="1">
          <mxGeometry x="1211" y="1179" width="101" height="34" as="geometry" />
        </mxCell>
        <mxCell id="u9Umea-9Md1OC9XHzGHI-204" value="EnterIteDetails" style="whiteSpace=wrap;strokeWidth=2;" vertex="1" parent="1">
          <mxGeometry x="1023" y="1572" width="123" height="34" as="geometry" />
        </mxCell>
        <mxCell id="u9Umea-9Md1OC9XHzGHI-205" value="ConfirmIteCreation" style="whiteSpace=wrap;strokeWidth=2;" vertex="1" parent="1">
          <mxGeometry x="1008" y="1675" width="153" height="34" as="geometry" />
        </mxCell>
        <mxCell id="u9Umea-9Md1OC9XHzGHI-206" value="SelectIte" style="whiteSpace=wrap;strokeWidth=2;" vertex="1" parent="1">
          <mxGeometry x="1222" y="1263" width="79" height="34" as="geometry" />
        </mxCell>
        <mxCell id="u9Umea-9Md1OC9XHzGHI-207" value="EnterDonationAmount" style="whiteSpace=wrap;strokeWidth=2;" vertex="1" parent="1">
          <mxGeometry x="1175" y="1366" width="173" height="34" as="geometry" />
        </mxCell>
        <mxCell id="u9Umea-9Md1OC9XHzGHI-208" value="ConfirmDonation" style="whiteSpace=wrap;strokeWidth=2;" vertex="1" parent="1">
          <mxGeometry x="1194" y="1469" width="136" height="34" as="geometry" />
        </mxCell>
        <mxCell id="u9Umea-9Md1OC9XHzGHI-209" value="ProcessDonation" style="whiteSpace=wrap;strokeWidth=2;" vertex="1" parent="1">
          <mxGeometry x="1196" y="1572" width="132" height="34" as="geometry" />
        </mxCell>
        <mxCell id="u9Umea-9Md1OC9XHzGHI-210" value="IssueNFT" style="whiteSpace=wrap;strokeWidth=2;" vertex="1" parent="1">
          <mxGeometry x="1222" y="1675" width="78" height="34" as="geometry" />
        </mxCell>
        <mxCell id="u9Umea-9Md1OC9XHzGHI-211" value="EnterAirtimeAmount" style="whiteSpace=wrap;strokeWidth=2;" vertex="1" parent="1">
          <mxGeometry x="1391" y="1469" width="163" height="34" as="geometry" />
        </mxCell>
        <mxCell id="u9Umea-9Md1OC9XHzGHI-212" value="ConfirmConversion" style="whiteSpace=wrap;strokeWidth=2;" vertex="1" parent="1">
          <mxGeometry x="1397" y="1572" width="150" height="34" as="geometry" />
        </mxCell>
        <mxCell id="u9Umea-9Md1OC9XHzGHI-213" value="ProcessConversion" style="whiteSpace=wrap;strokeWidth=2;" vertex="1" parent="1">
          <mxGeometry x="1399" y="1675" width="146" height="34" as="geometry" />
        </mxCell>
        <mxCell id="u9Umea-9Md1OC9XHzGHI-214" value="XLMToFiat" style="whiteSpace=wrap;strokeWidth=2;" vertex="1" parent="1">
          <mxGeometry x="1636" y="1366" width="89" height="34" as="geometry" />
        </mxCell>
        <mxCell id="u9Umea-9Md1OC9XHzGHI-215" value="FiatToXLM" style="whiteSpace=wrap;strokeWidth=2;" vertex="1" parent="1">
          <mxGeometry x="1854" y="1366" width="88" height="34" as="geometry" />
        </mxCell>
        <mxCell id="u9Umea-9Md1OC9XHzGHI-216" value="EnterXLMAmount" style="whiteSpace=wrap;strokeWidth=2;" vertex="1" parent="1">
          <mxGeometry x="1612" y="1469" width="138" height="34" as="geometry" />
        </mxCell>
        <mxCell id="u9Umea-9Md1OC9XHzGHI-217" value="ConfirmXLMExchange" style="whiteSpace=wrap;strokeWidth=2;" vertex="1" parent="1">
          <mxGeometry x="1597" y="1572" width="168" height="34" as="geometry" />
        </mxCell>
        <mxCell id="u9Umea-9Md1OC9XHzGHI-218" value="ProcessXLMExchange" style="whiteSpace=wrap;strokeWidth=2;" vertex="1" parent="1">
          <mxGeometry x="1599" y="1675" width="163" height="34" as="geometry" />
        </mxCell>
        <mxCell id="u9Umea-9Md1OC9XHzGHI-219" value="EnterFiatAmount" style="whiteSpace=wrap;strokeWidth=2;" vertex="1" parent="1">
          <mxGeometry x="1830" y="1469" width="137" height="34" as="geometry" />
        </mxCell>
        <mxCell id="u9Umea-9Md1OC9XHzGHI-220" value="ConfirmFiatExchange" style="whiteSpace=wrap;strokeWidth=2;" vertex="1" parent="1">
          <mxGeometry x="1815" y="1572" width="167" height="34" as="geometry" />
        </mxCell>
        <mxCell id="u9Umea-9Md1OC9XHzGHI-221" value="ProcessFiatExchange" style="whiteSpace=wrap;strokeWidth=2;" vertex="1" parent="1">
          <mxGeometry x="1817" y="1675" width="163" height="34" as="geometry" />
        </mxCell>
        <mxCell id="u9Umea-9Md1OC9XHzGHI-222" value="Dial USSD code" style="curved=1;startArrow=none;endArrow=block;exitX=0.49;exitY=1;entryX=0.49;entryY=0;rounded=0;" edge="1" parent="1" source="u9Umea-9Md1OC9XHzGHI-179" target="u9Umea-9Md1OC9XHzGHI-180">
          <mxGeometry relative="1" as="geometry">
            <Array as="points" />
          </mxGeometry>
        </mxCell>
        <mxCell id="u9Umea-9Md1OC9XHzGHI-223" value="1" style="curved=1;startArrow=none;endArrow=block;exitX=-0.01;exitY=0.59;entryX=0.5;entryY=0;rounded=0;" edge="1" parent="1" source="u9Umea-9Md1OC9XHzGHI-180" target="u9Umea-9Md1OC9XHzGHI-181">
          <mxGeometry relative="1" as="geometry">
            <Array as="points">
              <mxPoint x="97" y="1042" />
            </Array>
          </mxGeometry>
        </mxCell>
        <mxCell id="u9Umea-9Md1OC9XHzGHI-224" value="2" style="curved=1;startArrow=none;endArrow=block;exitX=-0.01;exitY=0.62;entryX=0.5;entryY=0;rounded=0;" edge="1" parent="1" source="u9Umea-9Md1OC9XHzGHI-180" target="u9Umea-9Md1OC9XHzGHI-182">
          <mxGeometry relative="1" as="geometry">
            <Array as="points">
              <mxPoint x="281" y="1042" />
            </Array>
          </mxGeometry>
        </mxCell>
        <mxCell id="u9Umea-9Md1OC9XHzGHI-225" value="3" style="curved=1;startArrow=none;endArrow=block;exitX=-0.01;exitY=0.68;entryX=0.5;entryY=0;rounded=0;" edge="1" parent="1" source="u9Umea-9Md1OC9XHzGHI-180" target="u9Umea-9Md1OC9XHzGHI-183">
          <mxGeometry relative="1" as="geometry">
            <Array as="points">
              <mxPoint x="470" y="1042" />
            </Array>
          </mxGeometry>
        </mxCell>
        <mxCell id="u9Umea-9Md1OC9XHzGHI-226" value="4" style="curved=1;startArrow=none;endArrow=block;exitX=0.49;exitY=1;entryX=0.5;entryY=0;rounded=0;" edge="1" parent="1" source="u9Umea-9Md1OC9XHzGHI-180" target="u9Umea-9Md1OC9XHzGHI-184">
          <mxGeometry relative="1" as="geometry">
            <Array as="points" />
          </mxGeometry>
        </mxCell>
        <mxCell id="u9Umea-9Md1OC9XHzGHI-227" value="5" style="curved=1;startArrow=none;endArrow=block;exitX=0.99;exitY=0.66;entryX=0.5;entryY=0;rounded=0;" edge="1" parent="1" source="u9Umea-9Md1OC9XHzGHI-180" target="u9Umea-9Md1OC9XHzGHI-185">
          <mxGeometry relative="1" as="geometry">
            <Array as="points">
              <mxPoint x="1247" y="1042" />
            </Array>
          </mxGeometry>
        </mxCell>
        <mxCell id="u9Umea-9Md1OC9XHzGHI-228" value="6" style="curved=1;startArrow=none;endArrow=block;exitX=0.99;exitY=0.6;entryX=0.5;entryY=0;rounded=0;" edge="1" parent="1" source="u9Umea-9Md1OC9XHzGHI-180" target="u9Umea-9Md1OC9XHzGHI-186">
          <mxGeometry relative="1" as="geometry">
            <Array as="points">
              <mxPoint x="1472" y="1042" />
            </Array>
          </mxGeometry>
        </mxCell>
        <mxCell id="u9Umea-9Md1OC9XHzGHI-229" value="7" style="curved=1;startArrow=none;endArrow=block;exitX=0.99;exitY=0.56;entryX=0.5;entryY=0;rounded=0;" edge="1" parent="1" source="u9Umea-9Md1OC9XHzGHI-180" target="u9Umea-9Md1OC9XHzGHI-187">
          <mxGeometry relative="1" as="geometry">
            <Array as="points">
              <mxPoint x="1864" y="1042" />
            </Array>
          </mxGeometry>
        </mxCell>
        <mxCell id="u9Umea-9Md1OC9XHzGHI-230" value="Enter recipient" style="curved=1;startArrow=none;endArrow=block;exitX=0.5;exitY=1;entryX=0.5;entryY=0;rounded=0;" edge="1" parent="1" source="u9Umea-9Md1OC9XHzGHI-181" target="u9Umea-9Md1OC9XHzGHI-188">
          <mxGeometry relative="1" as="geometry">
            <Array as="points" />
          </mxGeometry>
        </mxCell>
        <mxCell id="u9Umea-9Md1OC9XHzGHI-231" value="Confirm" style="curved=1;startArrow=none;endArrow=block;exitX=0.5;exitY=1;entryX=0.5;entryY=0;rounded=0;" edge="1" parent="1" source="u9Umea-9Md1OC9XHzGHI-188" target="u9Umea-9Md1OC9XHzGHI-189">
          <mxGeometry relative="1" as="geometry">
            <Array as="points" />
          </mxGeometry>
        </mxCell>
        <mxCell id="u9Umea-9Md1OC9XHzGHI-232" value="Enter amount" style="curved=1;startArrow=none;endArrow=block;exitX=0.5;exitY=1;entryX=0.5;entryY=0;rounded=0;" edge="1" parent="1" source="u9Umea-9Md1OC9XHzGHI-189" target="u9Umea-9Md1OC9XHzGHI-190">
          <mxGeometry relative="1" as="geometry">
            <Array as="points" />
          </mxGeometry>
        </mxCell>
        <mxCell id="u9Umea-9Md1OC9XHzGHI-233" value="Confirm" style="curved=1;startArrow=none;endArrow=block;exitX=0.5;exitY=1;entryX=0.5;entryY=0;rounded=0;" edge="1" parent="1" source="u9Umea-9Md1OC9XHzGHI-190" target="u9Umea-9Md1OC9XHzGHI-191">
          <mxGeometry relative="1" as="geometry">
            <Array as="points" />
          </mxGeometry>
        </mxCell>
        <mxCell id="u9Umea-9Md1OC9XHzGHI-234" value="Success" style="curved=1;startArrow=none;endArrow=block;exitX=0.41;exitY=1;entryX=0;entryY=0.42;rounded=0;" edge="1" parent="1" source="u9Umea-9Md1OC9XHzGHI-191" target="u9Umea-9Md1OC9XHzGHI-192">
          <mxGeometry relative="1" as="geometry">
            <Array as="points">
              <mxPoint x="61" y="1744" />
            </Array>
          </mxGeometry>
        </mxCell>
        <mxCell id="u9Umea-9Md1OC9XHzGHI-235" value="Failure" style="curved=1;startArrow=none;endArrow=block;exitX=0.68;exitY=1;entryX=0.74;entryY=0;rounded=0;" edge="1" parent="1" source="u9Umea-9Md1OC9XHzGHI-191" target="u9Umea-9Md1OC9XHzGHI-193">
          <mxGeometry relative="1" as="geometry">
            <Array as="points">
              <mxPoint x="167" y="1744" />
            </Array>
          </mxGeometry>
        </mxCell>
        <mxCell id="u9Umea-9Md1OC9XHzGHI-236" value="" style="curved=1;startArrow=none;endArrow=block;exitX=0.5;exitY=1;entryX=0.5;entryY=0;rounded=0;" edge="1" parent="1" source="u9Umea-9Md1OC9XHzGHI-182" target="u9Umea-9Md1OC9XHzGHI-194">
          <mxGeometry relative="1" as="geometry">
            <Array as="points" />
          </mxGeometry>
        </mxCell>
        <mxCell id="u9Umea-9Md1OC9XHzGHI-237" value="" style="curved=1;startArrow=none;endArrow=block;exitX=0.5;exitY=1;entryX=0;entryY=0.39;rounded=0;" edge="1" parent="1" source="u9Umea-9Md1OC9XHzGHI-194" target="u9Umea-9Md1OC9XHzGHI-192">
          <mxGeometry relative="1" as="geometry">
            <Array as="points">
              <mxPoint x="281" y="1744" />
            </Array>
          </mxGeometry>
        </mxCell>
        <mxCell id="u9Umea-9Md1OC9XHzGHI-238" value="" style="curved=1;startArrow=none;endArrow=block;exitX=0.5;exitY=1;entryX=0.5;entryY=0;rounded=0;" edge="1" parent="1" source="u9Umea-9Md1OC9XHzGHI-183" target="u9Umea-9Md1OC9XHzGHI-195">
          <mxGeometry relative="1" as="geometry">
            <Array as="points" />
          </mxGeometry>
        </mxCell>
        <mxCell id="u9Umea-9Md1OC9XHzGHI-239" value="" style="curved=1;startArrow=none;endArrow=block;exitX=0.5;exitY=1;entryX=0;entryY=0.35;rounded=0;" edge="1" parent="1" source="u9Umea-9Md1OC9XHzGHI-195" target="u9Umea-9Md1OC9XHzGHI-192">
          <mxGeometry relative="1" as="geometry">
            <Array as="points">
              <mxPoint x="470" y="1744" />
            </Array>
          </mxGeometry>
        </mxCell>
        <mxCell id="u9Umea-9Md1OC9XHzGHI-240" value="1" style="curved=1;startArrow=none;endArrow=block;exitX=0.05;exitY=1;entryX=0.5;entryY=0;rounded=0;" edge="1" parent="1" source="u9Umea-9Md1OC9XHzGHI-184" target="u9Umea-9Md1OC9XHzGHI-196">
          <mxGeometry relative="1" as="geometry">
            <Array as="points">
              <mxPoint x="652" y="1435" />
            </Array>
          </mxGeometry>
        </mxCell>
        <mxCell id="u9Umea-9Md1OC9XHzGHI-241" value="2" style="curved=1;startArrow=none;endArrow=block;exitX=0.59;exitY=1;entryX=0.5;entryY=0;rounded=0;" edge="1" parent="1" source="u9Umea-9Md1OC9XHzGHI-184" target="u9Umea-9Md1OC9XHzGHI-197">
          <mxGeometry relative="1" as="geometry">
            <Array as="points">
              <mxPoint x="878" y="1435" />
            </Array>
          </mxGeometry>
        </mxCell>
        <mxCell id="u9Umea-9Md1OC9XHzGHI-242" value="" style="curved=1;startArrow=none;endArrow=block;exitX=0.5;exitY=1;entryX=0.5;entryY=0;rounded=0;" edge="1" parent="1" source="u9Umea-9Md1OC9XHzGHI-196" target="u9Umea-9Md1OC9XHzGHI-198">
          <mxGeometry relative="1" as="geometry">
            <Array as="points" />
          </mxGeometry>
        </mxCell>
        <mxCell id="u9Umea-9Md1OC9XHzGHI-243" value="" style="curved=1;startArrow=none;endArrow=block;exitX=0.5;exitY=1;entryX=0.5;entryY=0;rounded=0;" edge="1" parent="1" source="u9Umea-9Md1OC9XHzGHI-198" target="u9Umea-9Md1OC9XHzGHI-199">
          <mxGeometry relative="1" as="geometry">
            <Array as="points" />
          </mxGeometry>
        </mxCell>
        <mxCell id="u9Umea-9Md1OC9XHzGHI-244" value="" style="curved=1;startArrow=none;endArrow=block;exitX=0.5;exitY=1;entryX=0;entryY=0.27;rounded=0;" edge="1" parent="1" source="u9Umea-9Md1OC9XHzGHI-199" target="u9Umea-9Md1OC9XHzGHI-192">
          <mxGeometry relative="1" as="geometry">
            <Array as="points">
              <mxPoint x="652" y="1744" />
            </Array>
          </mxGeometry>
        </mxCell>
        <mxCell id="u9Umea-9Md1OC9XHzGHI-245" value="" style="curved=1;startArrow=none;endArrow=block;exitX=0.5;exitY=1;entryX=0.5;entryY=0;rounded=0;" edge="1" parent="1" source="u9Umea-9Md1OC9XHzGHI-197" target="u9Umea-9Md1OC9XHzGHI-200">
          <mxGeometry relative="1" as="geometry">
            <Array as="points" />
          </mxGeometry>
        </mxCell>
        <mxCell id="u9Umea-9Md1OC9XHzGHI-246" value="" style="curved=1;startArrow=none;endArrow=block;exitX=0.5;exitY=1;entryX=0.5;entryY=0;rounded=0;" edge="1" parent="1" source="u9Umea-9Md1OC9XHzGHI-200" target="u9Umea-9Md1OC9XHzGHI-201">
          <mxGeometry relative="1" as="geometry">
            <Array as="points" />
          </mxGeometry>
        </mxCell>
        <mxCell id="u9Umea-9Md1OC9XHzGHI-247" value="" style="curved=1;startArrow=none;endArrow=block;exitX=0.5;exitY=1;entryX=0.16;entryY=0;rounded=0;" edge="1" parent="1" source="u9Umea-9Md1OC9XHzGHI-201" target="u9Umea-9Md1OC9XHzGHI-192">
          <mxGeometry relative="1" as="geometry">
            <Array as="points">
              <mxPoint x="878" y="1744" />
            </Array>
          </mxGeometry>
        </mxCell>
        <mxCell id="u9Umea-9Md1OC9XHzGHI-248" value="1" style="curved=1;startArrow=none;endArrow=block;exitX=0;exitY=0.84;entryX=0.5;entryY=0;rounded=0;" edge="1" parent="1" source="u9Umea-9Md1OC9XHzGHI-185" target="u9Umea-9Md1OC9XHzGHI-202">
          <mxGeometry relative="1" as="geometry">
            <Array as="points">
              <mxPoint x="1084" y="1145" />
            </Array>
          </mxGeometry>
        </mxCell>
        <mxCell id="u9Umea-9Md1OC9XHzGHI-249" value="2" style="curved=1;startArrow=none;endArrow=block;exitX=0.57;exitY=1;entryX=0.5;entryY=0;rounded=0;" edge="1" parent="1" source="u9Umea-9Md1OC9XHzGHI-185" target="u9Umea-9Md1OC9XHzGHI-203">
          <mxGeometry relative="1" as="geometry">
            <Array as="points">
              <mxPoint x="1262" y="1145" />
            </Array>
          </mxGeometry>
        </mxCell>
        <mxCell id="u9Umea-9Md1OC9XHzGHI-250" value="" style="curved=1;startArrow=none;endArrow=block;exitX=0.5;exitY=1;entryX=0.5;entryY=0;rounded=0;" edge="1" parent="1" source="u9Umea-9Md1OC9XHzGHI-202" target="u9Umea-9Md1OC9XHzGHI-204">
          <mxGeometry relative="1" as="geometry">
            <Array as="points" />
          </mxGeometry>
        </mxCell>
        <mxCell id="u9Umea-9Md1OC9XHzGHI-251" value="" style="curved=1;startArrow=none;endArrow=block;exitX=0.5;exitY=1;entryX=0.5;entryY=0;rounded=0;" edge="1" parent="1" source="u9Umea-9Md1OC9XHzGHI-204" target="u9Umea-9Md1OC9XHzGHI-205">
          <mxGeometry relative="1" as="geometry">
            <Array as="points" />
          </mxGeometry>
        </mxCell>
        <mxCell id="u9Umea-9Md1OC9XHzGHI-252" value="" style="curved=1;startArrow=none;endArrow=block;exitX=0.5;exitY=1;entryX=0.83;entryY=0;rounded=0;" edge="1" parent="1" source="u9Umea-9Md1OC9XHzGHI-205" target="u9Umea-9Md1OC9XHzGHI-192">
          <mxGeometry relative="1" as="geometry">
            <Array as="points">
              <mxPoint x="1084" y="1744" />
            </Array>
          </mxGeometry>
        </mxCell>
        <mxCell id="u9Umea-9Md1OC9XHzGHI-253" value="" style="curved=1;startArrow=none;endArrow=block;exitX=0.5;exitY=1;entryX=0.5;entryY=0;rounded=0;" edge="1" parent="1" source="u9Umea-9Md1OC9XHzGHI-203" target="u9Umea-9Md1OC9XHzGHI-206">
          <mxGeometry relative="1" as="geometry">
            <Array as="points" />
          </mxGeometry>
        </mxCell>
        <mxCell id="u9Umea-9Md1OC9XHzGHI-254" value="" style="curved=1;startArrow=none;endArrow=block;exitX=0.5;exitY=1;entryX=0.5;entryY=0;rounded=0;" edge="1" parent="1" source="u9Umea-9Md1OC9XHzGHI-206" target="u9Umea-9Md1OC9XHzGHI-207">
          <mxGeometry relative="1" as="geometry">
            <Array as="points" />
          </mxGeometry>
        </mxCell>
        <mxCell id="u9Umea-9Md1OC9XHzGHI-255" value="" style="curved=1;startArrow=none;endArrow=block;exitX=0.5;exitY=1;entryX=0.5;entryY=0;rounded=0;" edge="1" parent="1" source="u9Umea-9Md1OC9XHzGHI-207" target="u9Umea-9Md1OC9XHzGHI-208">
          <mxGeometry relative="1" as="geometry">
            <Array as="points" />
          </mxGeometry>
        </mxCell>
        <mxCell id="u9Umea-9Md1OC9XHzGHI-256" value="" style="curved=1;startArrow=none;endArrow=block;exitX=0.5;exitY=1;entryX=0.5;entryY=0;rounded=0;" edge="1" parent="1" source="u9Umea-9Md1OC9XHzGHI-208" target="u9Umea-9Md1OC9XHzGHI-209">
          <mxGeometry relative="1" as="geometry">
            <Array as="points" />
          </mxGeometry>
        </mxCell>
        <mxCell id="u9Umea-9Md1OC9XHzGHI-257" value="" style="curved=1;startArrow=none;endArrow=block;exitX=0.5;exitY=1;entryX=0.51;entryY=0;rounded=0;" edge="1" parent="1" source="u9Umea-9Md1OC9XHzGHI-209" target="u9Umea-9Md1OC9XHzGHI-210">
          <mxGeometry relative="1" as="geometry">
            <Array as="points" />
          </mxGeometry>
        </mxCell>
        <mxCell id="u9Umea-9Md1OC9XHzGHI-258" value="" style="curved=1;startArrow=none;endArrow=block;exitX=0.51;exitY=1;entryX=0.99;entryY=0.23;rounded=0;" edge="1" parent="1" source="u9Umea-9Md1OC9XHzGHI-210" target="u9Umea-9Md1OC9XHzGHI-192">
          <mxGeometry relative="1" as="geometry">
            <Array as="points">
              <mxPoint x="1262" y="1744" />
            </Array>
          </mxGeometry>
        </mxCell>
        <mxCell id="u9Umea-9Md1OC9XHzGHI-259" value="" style="curved=1;startArrow=none;endArrow=block;exitX=0.5;exitY=1;entryX=0.5;entryY=0;rounded=0;" edge="1" parent="1" source="u9Umea-9Md1OC9XHzGHI-186" target="u9Umea-9Md1OC9XHzGHI-211">
          <mxGeometry relative="1" as="geometry">
            <Array as="points" />
          </mxGeometry>
        </mxCell>
        <mxCell id="u9Umea-9Md1OC9XHzGHI-260" value="" style="curved=1;startArrow=none;endArrow=block;exitX=0.5;exitY=1;entryX=0.5;entryY=0;rounded=0;" edge="1" parent="1" source="u9Umea-9Md1OC9XHzGHI-211" target="u9Umea-9Md1OC9XHzGHI-212">
          <mxGeometry relative="1" as="geometry">
            <Array as="points" />
          </mxGeometry>
        </mxCell>
        <mxCell id="u9Umea-9Md1OC9XHzGHI-261" value="" style="curved=1;startArrow=none;endArrow=block;exitX=0.5;exitY=1;entryX=0.5;entryY=0;rounded=0;" edge="1" parent="1" source="u9Umea-9Md1OC9XHzGHI-212" target="u9Umea-9Md1OC9XHzGHI-213">
          <mxGeometry relative="1" as="geometry">
            <Array as="points" />
          </mxGeometry>
        </mxCell>
        <mxCell id="u9Umea-9Md1OC9XHzGHI-262" value="" style="curved=1;startArrow=none;endArrow=block;exitX=0.5;exitY=1;entryX=0.99;entryY=0.34;rounded=0;" edge="1" parent="1" source="u9Umea-9Md1OC9XHzGHI-213" target="u9Umea-9Md1OC9XHzGHI-192">
          <mxGeometry relative="1" as="geometry">
            <Array as="points">
              <mxPoint x="1472" y="1744" />
            </Array>
          </mxGeometry>
        </mxCell>
        <mxCell id="u9Umea-9Md1OC9XHzGHI-263" value="1" style="curved=1;startArrow=none;endArrow=block;exitX=0;exitY=1;entryX=0.5;entryY=0;rounded=0;" edge="1" parent="1" source="u9Umea-9Md1OC9XHzGHI-187" target="u9Umea-9Md1OC9XHzGHI-214">
          <mxGeometry relative="1" as="geometry">
            <Array as="points">
              <mxPoint x="1681" y="1332" />
            </Array>
          </mxGeometry>
        </mxCell>
        <mxCell id="u9Umea-9Md1OC9XHzGHI-264" value="2" style="curved=1;startArrow=none;endArrow=block;exitX=0.59;exitY=1;entryX=0.5;entryY=0;rounded=0;" edge="1" parent="1" source="u9Umea-9Md1OC9XHzGHI-187" target="u9Umea-9Md1OC9XHzGHI-215">
          <mxGeometry relative="1" as="geometry">
            <Array as="points">
              <mxPoint x="1898" y="1332" />
            </Array>
          </mxGeometry>
        </mxCell>
        <mxCell id="u9Umea-9Md1OC9XHzGHI-265" value="" style="curved=1;startArrow=none;endArrow=block;exitX=0.5;exitY=1;entryX=0.5;entryY=0;rounded=0;" edge="1" parent="1" source="u9Umea-9Md1OC9XHzGHI-214" target="u9Umea-9Md1OC9XHzGHI-216">
          <mxGeometry relative="1" as="geometry">
            <Array as="points" />
          </mxGeometry>
        </mxCell>
        <mxCell id="u9Umea-9Md1OC9XHzGHI-266" value="" style="curved=1;startArrow=none;endArrow=block;exitX=0.5;exitY=1;entryX=0.5;entryY=0;rounded=0;" edge="1" parent="1" source="u9Umea-9Md1OC9XHzGHI-216" target="u9Umea-9Md1OC9XHzGHI-217">
          <mxGeometry relative="1" as="geometry">
            <Array as="points" />
          </mxGeometry>
        </mxCell>
        <mxCell id="u9Umea-9Md1OC9XHzGHI-267" value="" style="curved=1;startArrow=none;endArrow=block;exitX=0.5;exitY=1;entryX=0.5;entryY=0;rounded=0;" edge="1" parent="1" source="u9Umea-9Md1OC9XHzGHI-217" target="u9Umea-9Md1OC9XHzGHI-218">
          <mxGeometry relative="1" as="geometry">
            <Array as="points" />
          </mxGeometry>
        </mxCell>
        <mxCell id="u9Umea-9Md1OC9XHzGHI-268" value="" style="curved=1;startArrow=none;endArrow=block;exitX=0.5;exitY=1;entryX=0.99;entryY=0.39;rounded=0;" edge="1" parent="1" source="u9Umea-9Md1OC9XHzGHI-218" target="u9Umea-9Md1OC9XHzGHI-192">
          <mxGeometry relative="1" as="geometry">
            <Array as="points">
              <mxPoint x="1681" y="1744" />
            </Array>
          </mxGeometry>
        </mxCell>
        <mxCell id="u9Umea-9Md1OC9XHzGHI-269" value="" style="curved=1;startArrow=none;endArrow=block;exitX=0.5;exitY=1;entryX=0.5;entryY=0;rounded=0;" edge="1" parent="1" source="u9Umea-9Md1OC9XHzGHI-215" target="u9Umea-9Md1OC9XHzGHI-219">
          <mxGeometry relative="1" as="geometry">
            <Array as="points" />
          </mxGeometry>
        </mxCell>
        <mxCell id="u9Umea-9Md1OC9XHzGHI-270" value="" style="curved=1;startArrow=none;endArrow=block;exitX=0.5;exitY=1;entryX=0.5;entryY=0;rounded=0;" edge="1" parent="1" source="u9Umea-9Md1OC9XHzGHI-219" target="u9Umea-9Md1OC9XHzGHI-220">
          <mxGeometry relative="1" as="geometry">
            <Array as="points" />
          </mxGeometry>
        </mxCell>
        <mxCell id="u9Umea-9Md1OC9XHzGHI-271" value="" style="curved=1;startArrow=none;endArrow=block;exitX=0.5;exitY=1;entryX=0.5;entryY=0;rounded=0;" edge="1" parent="1" source="u9Umea-9Md1OC9XHzGHI-220" target="u9Umea-9Md1OC9XHzGHI-221">
          <mxGeometry relative="1" as="geometry">
            <Array as="points" />
          </mxGeometry>
        </mxCell>
        <mxCell id="u9Umea-9Md1OC9XHzGHI-272" value="" style="curved=1;startArrow=none;endArrow=block;exitX=0.5;exitY=1;entryX=0.99;entryY=0.42;rounded=0;" edge="1" parent="1" source="u9Umea-9Md1OC9XHzGHI-221" target="u9Umea-9Md1OC9XHzGHI-192">
          <mxGeometry relative="1" as="geometry">
            <Array as="points">
              <mxPoint x="1898" y="1744" />
            </Array>
          </mxGeometry>
        </mxCell>
      </root>
    </mxGraphModel>
  </diagram>
</mxfile>
